<svg xmlns="http://www.w3.org/2000/svg" x="0px" y="0px"
width="16" height="16"
viewBox="0 0 172 172"
style=" fill:#000000;"><g fill="none" fill-rule="nonzero" stroke="none" stroke-width="1" stroke-linecap="butt" stroke-linejoin="miter" stroke-miterlimit="10" stroke-dasharray="" stroke-dashoffset="0" font-family="none" font-weight="none" font-size="none" text-anchor="none" style="mix-blend-mode: normal"><path d="M0,172v-172h172v172z" fill="none" stroke="none"></path><g><rect x="12.5" y="2.5" transform="scale(4.3,4.3)" width="15" height="10" fill="#e1ebf2" stroke="none"></rect><path d="M120.4,55.9h-68.8v-47.3h68.8zM55.9,51.6h60.2v-38.7h-60.2z" fill="#788b9c" stroke="none"></path><rect x="9.5" y="4.5" transform="scale(4.3,4.3)" width="21" height="34" fill="#e1ebf2" stroke="none"></rect><path d="M133.3,167.7h-94.6v-150.5h94.6zM43,163.4h86v-141.9h-86z" fill="#788b9c" stroke="none"></path><path d="M53.75,32.25h12.9v8.6h-12.9z" fill="#8bb7f0" stroke="none"></path><path d="M68.8,43h-17.2v-12.9h17.2zM55.9,38.7h8.6v-4.3h-8.6z" fill="#7496c4" stroke="none"></path><path d="M79.55,32.25h12.9v8.6h-12.9z" fill="#8bb7f0" stroke="none"></path><path d="M94.6,43h-17.2v-12.9h17.2zM81.7,38.7h8.6v-4.3h-8.6z" fill="#7496c4" stroke="none"></path><path d="M105.35,32.25h12.9v8.6h-12.9z" fill="#8bb7f0" stroke="none"></path><path d="M120.4,43h-17.2v-12.9h17.2zM107.5,38.7h8.6v-4.3h-8.6z" fill="#7496c4" stroke="none"></path><path d="M53.75,53.75h12.9v8.6h-12.9z" fill="#8bb7f0" stroke="none"></path><path d="M68.8,64.5h-17.2v-12.9h17.2zM55.9,60.2h8.6v-4.3h-8.6z" fill="#7496c4" stroke="none"></path><path d="M79.55,53.75h12.9v8.6h-12.9z" fill="#8bb7f0" stroke="none"></path><path d="M94.6,64.5h-17.2v-12.9h17.2zM81.7,60.2h8.6v-4.3h-8.6z" fill="#7496c4" stroke="none"></path><path d="M100.8952,75.25h15.4112v10.75h-15.4112z" fill="#8bb7f0" stroke="#7496c4"></path><rect x="20.5" y="12.5" transform="scale(4.3,4.3)" width="16" height="26" fill="#dcd5f2" stroke="none"></rect><path d="M159.1,167.7h-73.1v-116.1h73.1zM90.3,163.4h64.5v-107.5h-64.5z" fill="#8b75a1" stroke="none"></path><path d="M113.95,139.75h17.2v25.8h-17.2z" fill="#8bb7f0" stroke="none"></path><path d="M133.3,167.7h-21.5v-30.1h21.5zM116.1,163.4h12.9v-21.5h-12.9z" fill="#7496c4" stroke="none"></path><g stroke="none"><path d="M101.05,75.25h43v8.6h-43z" fill="#8bb7f0"></path><path d="M146.2,86h-47.3v-12.9h47.3zM103.2,81.7h38.7v-4.3h-38.7z" fill="#7496c4"></path></g><g stroke="none"><path d="M101.05,96.75h43v8.6h-43z" fill="#8bb7f0"></path><path d="M146.2,107.5h-47.3v-12.9h47.3zM103.2,103.2h38.7v-4.3h-38.7z" fill="#7496c4"></path></g><g stroke="none"><path d="M101.05,118.25h43v8.6h-43z" fill="#8bb7f0"></path><path d="M146.2,129h-47.3v-12.9h47.3zM103.2,124.7h38.7v-4.3h-38.7z" fill="#7496c4"></path></g><g stroke="none"><rect x="6.5" y="14.5" transform="scale(4.3,4.3)" width="14" height="10" fill="#ffeea3"></rect><path d="M90.3,107.5h-64.5v-47.3h64.5zM30.1,103.2h55.9v-38.7h-55.9z" fill="#ba9b48"></path></g><g stroke="none"><rect x="3.5" y="17.5" transform="scale(4.3,4.3)" width="20" height="21" fill="#ffeea3"></rect><path d="M103.2,167.7h-90.3v-94.6h90.3zM17.2,163.4h81.7v-86h-81.7z" fill="#ba9b48"></path></g><g stroke="none"><path d="M49.45,139.75h17.2v25.8h-17.2z" fill="#8bb7f0"></path><path d="M68.8,167.7h-21.5v-30.1h21.5zM51.6,163.4h12.9v-21.5h-12.9z" fill="#7496c4"></path></g><g stroke="none"><path d="M32.25,96.75h8.6v30.1h-8.6z" fill="#8bb7f0"></path><path d="M43,129h-12.9v-34.4h12.9zM34.4,124.7h4.3v-25.8h-4.3z" fill="#7496c4"></path></g><g stroke="none"><path d="M53.75,96.75h8.6v30.1h-8.6z" fill="#8bb7f0"></path><path d="M64.5,129h-12.9v-34.4h12.9zM55.9,124.7h4.3v-25.8h-4.3z" fill="#7496c4"></path></g><g stroke="none"><path d="M75.25,96.75h8.6v30.1h-8.6z" fill="#8bb7f0"></path><path d="M86,129h-12.9v-34.4h12.9zM77.4,124.7h4.3v-25.8h-4.3z" fill="#7496c4"></path></g></g></g></svg>